<svg xmlns="http://www.w3.org/2000/svg" width="640" height="480" viewBox="0 0 640 480">
  <path d="M 97 128 L 80 187 L 194 184 L 216 159 L 239 155 L 238 187 L 207 224 L 158 349 L 163 397 L 473 397 L 478 351 L 430 225 L 396 184 L 397 155 L 423 161 L 440 185 L 556 188 L 547 142 L 530 120 L 499 106 L 411 88 L 339 82 L 233 87 L 142 105 Z M 304 204 L 335 204 L 358 213 L 378 232 L 384 242 L 390 260 L 390 291 L 380 315 L 361 334 L 351 340 L 336 345 L 306 346 L 291 342 L 279 336 L 270 329 L 258 315 L 248 291 L 247 265 L 251 248 L 257 236 L 276 216 L 288 209 Z M 253 151 L 259 149 L 288 146 L 296 144 L 338 144 L 339 145 L 347 145 L 348 146 L 355 146 L 356 147 L 382 150 L 383 151 L 383 160 L 376 176 L 376 180 L 374 182 L 356 182 L 355 181 L 338 181 L 337 180 L 300 180 L 299 181 L 263 182 L 253 159 Z" fill="#ffffff" fill-rule="evenodd"/>
</svg>
